<svg width="176" height="192" viewBox="0 0 176 192" fill="none" xmlns="http://www.w3.org/2000/svg">
<g filter="url(#filter0_d_371_80)">
<path d="M30.8651 7.78822C30.3903 1.79358 25.1307 0.294922 21.4051 0.294922C12.0183 0.294922 9.86328 8.59238 9.86328 14.1484C9.86328 19.2658 11.653 27.4536 20.9303 27.4536C25.4594 27.4536 30.2442 25.297 30.792 20.1065H26.7743C26.6647 20.7279 26.4456 21.861 25.4959 22.8845C24.3636 24.0542 22.8296 24.4563 21.2225 24.4563C15.1959 24.4563 13.7714 19.083 13.7714 14.1118C13.7714 9.7255 14.9037 3.21914 21.259 3.21914C26.336 3.21914 26.8108 6.87441 26.9569 7.78822H30.8651Z" fill="white"/>
<path d="M34.3945 27.0517H38.0105V15.1355H42.6128C47.0321 15.1355 47.9452 16.2321 48.3834 20.0701C48.6391 22.0805 49.0043 25.2972 49.5887 27.0517H53.4971C52.4744 24.1275 52.2188 21.8612 51.8535 18.7542C51.4883 15.4645 50.3561 14.3313 47.8356 13.6734C48.6391 13.4541 49.8078 13.0886 50.9405 11.9554C52.1092 10.7857 52.8031 9.14088 52.8031 7.27667C52.8031 5.15664 51.8535 3.14623 49.8809 1.90343C47.9452 0.660644 45.1694 0.660645 43.8181 0.660645H34.3945V27.0517ZM37.9375 3.73107H43.7085C45.1694 3.73107 48.9678 3.73107 48.9678 8.00772C48.9678 10.2009 47.6895 11.1513 47.1782 11.4437C46.1921 12.0285 44.1103 12.0285 43.7085 12.0285H37.9375V3.73107Z" fill="white"/>
<path d="M56.7305 27.0517H75.0467L75.3929 23.835H60.3828V15.0624H72.6553V11.992H60.3828V3.76762H73.2762V0.660645H56.7305V27.0517Z" fill="white"/>
<path d="M72.7598 27.0517H76.5216L79.3708 20.1798H91.6065L94.4552 27.0517H98.4367L87.7715 0.660645H83.8632L72.7598 27.0517ZM85.6528 4.27938L90.5108 17.219H80.5396L85.6528 4.27938Z" fill="white"/>
<path d="M107.15 27.0517V3.76762H115.989V0.660645H94.6953V3.76762H103.534V27.0517H107.15Z" fill="white"/>
<path d="M118.541 27.0517H122.193V0.660645H118.541V27.0517Z" fill="white"/>
<path d="M147.843 0.660645H144.154L136.264 23.2136L128.777 0.660645H124.723L134.109 27.0517H138.127L147.843 0.660645Z" fill="white"/>
<path d="M150.387 27.0517H167.225V23.835H154.039V15.0624H166.312V11.992H154.039V3.76762H166.932V0.660645H150.387V27.0517Z" fill="white"/>
<path d="M71.8497 58.4706V35.1864H80.6887V32.0794H59.3945V35.1864H68.2339V58.4706H71.8497ZM83.0017 58.4706H99.8396V55.2537H86.6544V46.4811H98.9265V43.4108H86.6544V35.1864H99.5474V32.0794H83.0017V58.4706ZM123.008 39.2072C122.534 33.2125 117.274 31.7139 113.549 31.7139C104.162 31.7139 102.007 40.0114 102.007 45.5673C102.007 50.6848 103.797 58.8726 113.074 58.8726C117.603 58.8726 122.388 56.7157 122.935 51.5255H118.918C118.808 52.1469 118.589 53.28 117.639 54.3034C116.507 55.473 114.973 55.8751 113.366 55.8751C107.339 55.8751 105.915 50.5021 105.915 45.5308C105.915 41.1445 107.047 34.6381 113.402 34.6381C118.48 34.6381 118.954 38.2934 119.1 39.2072H123.008ZM126.478 32.0794V58.4706H130.13V46.5542H142.659V58.4706H146.311V32.0794H142.659V43.4108H130.13V32.0794H126.478Z" fill="white"/>
<path d="M52.9112 41.3638C52.9112 45.8962 52.3268 47.8338 50.9755 50.0999L44.5105 43.7031C46.0445 42.6797 49.6241 40.3403 49.6241 36.4658C49.6241 35.0767 49.0398 33.7608 48.0537 32.847C47.2136 32.0794 45.9349 31.2021 42.5748 31.2021C38.0092 31.2021 35.489 33.5781 35.489 37.014C35.489 40.1575 37.4248 42.0584 38.5205 43.0818C35.7811 45.1286 32.9688 47.3586 32.9688 51.4889C32.9688 55.6926 36.1829 59.0919 41.8443 59.0919C45.4601 59.0919 48.5285 57.6298 50.9755 55.2175L54.4086 58.4705H59.5223L53.2399 52.3661C55.6874 49.1131 56.4178 46.481 56.4544 41.3638H52.9112ZM42.173 41.3273C40.5659 39.7555 39.3971 38.3299 39.3971 36.8313C39.3971 35.4422 40.712 34.1264 42.6844 34.1264C44.8757 34.1264 45.7158 35.5519 45.7158 36.612C45.7158 38.9148 43.0861 40.7059 42.173 41.3273ZM48.6015 53.024C47.6519 54.0109 45.7158 56.0216 42.3922 56.0216C40.2007 56.0216 36.8039 55.0343 36.8039 51.3792C36.8039 49.4055 37.8266 47.6145 40.8581 45.3845L48.6015 53.024Z" fill="white"/>
<path d="M4.27148 183.19H7.92396V156.799H4.27148V183.19ZM11.2229 183.19H14.5467V160.783L27.9513 183.19H32.6265V156.799H29.2662V178.621L16.2999 156.799H11.2229V183.19ZM35.3045 175.478C35.3045 176.757 35.341 178.877 36.8385 180.814C38.9205 183.483 43.0112 183.812 45.02 183.812C51.7772 183.812 55.4299 180.266 55.4299 175.587C55.4299 174.491 55.2473 171.932 52.7998 170.324C51.2658 169.3 50.5719 169.154 44.2895 167.546C41.0754 166.778 39.5414 165.974 39.5414 163.635C39.5414 161.003 41.7329 159.358 45.3852 159.358C47.9788 159.358 50.7545 160.089 50.9371 163.379H54.7355C54.6625 162.282 54.5894 160.491 53.1285 158.883C51.0102 156.58 47.4675 156.288 45.7139 156.288C40.7467 156.288 35.6697 158.627 35.6697 164C35.6697 165.755 36.2542 167.728 38.4091 169.19C39.7605 170.105 41.5502 170.543 45.5678 171.53C49.2571 172.444 51.6311 173.029 51.6311 175.989C51.6311 177.305 50.9371 180.705 45.4583 180.705C39.3953 180.705 39.1761 177.305 39.1031 175.478H35.3045ZM67.7381 183.19V159.906H76.5775V156.799H55.2834V159.906H64.1223V183.19H67.7381ZM78.7809 183.19H82.4332V156.799H78.7809V183.19ZM97.1279 183.19V159.906H105.967V156.799H84.6732V159.906H93.5121V183.19H97.1279ZM108.17 156.799V172.882C108.17 176.83 108.901 178.366 109.705 179.535C112.152 183.044 116.534 183.738 119.018 183.738C120.918 183.738 124.936 183.336 127.529 180.083C129.647 177.451 129.684 174.491 129.684 173.065V156.799H126.141V172.992C126.141 174.893 126.141 180.485 119.018 180.485C117.192 180.485 114.635 180.083 112.992 177.89C112.444 177.122 111.823 175.953 111.823 173.138V156.799H108.17ZM144.05 183.19V159.906H152.889V156.799H131.595V159.906H140.434V183.19H144.05ZM154.836 183.19H171.674V179.974H158.489V171.201H170.761V168.13H158.489V159.906H171.382V156.799H154.836V183.19Z" fill="white"/>
<path d="M30.2578 139.194C30.2578 146.432 33.1798 152.829 42.1648 152.829C51.5517 152.829 54.3643 145.774 54.3643 138.756C54.3643 129.801 49.762 125.122 42.457 125.122C40.0099 125.122 36.394 125.706 33.6546 128.667C30.7691 131.774 30.2578 136.197 30.2578 139.194ZM34.0929 138.975C34.0929 133.565 35.8096 128.192 42.4935 128.192C48.5203 128.192 50.4925 132.725 50.4925 138.719C50.4925 140.51 50.2734 144.678 48.1185 147.309C46.5845 149.137 44.4293 149.722 42.2744 149.722C40.1926 149.722 37.928 149.173 36.4305 147.309C34.6043 145.043 34.0929 141.863 34.0929 138.975ZM57.0787 152.207H60.4027V129.801L73.807 152.207H78.4824V125.816H75.1218V147.638L62.1558 125.816H57.0787V152.207ZM82.8772 152.207H98.7655V148.954H86.4929V125.816H82.8772V152.207ZM100.981 152.207H104.634V125.816H100.981V152.207ZM108.48 152.207H111.804V129.801L125.209 152.207H129.884V125.816H126.524V147.638L113.557 125.816H108.48V152.207ZM133.84 152.207H150.678V148.991H137.493V140.218H149.765V137.148H137.493V128.923H150.386V125.816H133.84V152.207Z" fill="white"/>
<path d="M30.3203 93.9839H38.5383C42.3707 93.9839 45.5769 94.2427 47.7898 96.8963C49.1914 98.593 49.4134 100.507 49.4134 101.873C49.4134 104.971 48.1252 107.588 46.0214 108.95C44.0666 110.202 41.3772 110.202 39.9759 110.202H36.1072V120.559H30.3203V93.9839ZM35.9618 105.965H38.2475C40.089 105.965 43.5175 105.965 43.5175 101.909C43.5175 98.2981 40.4565 98.2981 38.8371 98.2981H35.9618V105.965Z" fill="white"/>
<path d="M50.5039 93.9113H60.7129C63.6605 93.8747 66.645 93.8747 68.7853 95.7168C70.445 97.1548 71.1074 99.1098 71.1074 100.843C71.1074 105.819 66.8309 106.999 65.5427 107.366C69.5606 107.734 69.8553 110.02 70.3321 113.485C70.736 116.62 70.958 117.909 71.1435 118.648C71.4386 119.827 71.6607 120.122 71.9553 120.567H65.6514C65.3932 119.092 64.5814 112.347 64.2141 111.312C63.697 109.802 62.2958 109.802 61.3388 109.802H56.3272V120.567H50.5039V93.9113ZM56.1413 105.561H60.749C61.4114 105.561 62.7399 105.561 63.6605 104.821C64.0647 104.526 65.1347 103.606 65.1347 101.723C65.1347 99.9177 64.2502 99.0695 63.7335 98.7381C62.8491 98.1122 61.7787 98.1121 59.9737 98.1121H56.1413V105.561Z" fill="white"/>
<path d="M113.054 67.4675H105.131V63.0444H126.728V67.4675H118.8V89.6958H113.05V67.4675H113.054Z" fill="white"/>
<path d="M128.287 63.0417H138.496C141.444 63.0051 144.428 63.0051 146.569 64.8472C148.228 66.2851 148.891 68.2402 148.891 69.973C148.891 74.9493 144.614 76.1289 143.326 76.4965C147.344 76.8641 147.638 79.1502 148.115 82.6159C148.519 85.7505 148.741 87.0389 148.927 87.7783C149.222 88.9578 149.444 89.2527 149.739 89.6968H143.435C143.176 88.2227 142.365 81.477 141.997 80.4428C141.48 78.9321 140.079 78.9321 139.122 78.9321H134.11V89.6968H128.287V63.0417ZM133.925 74.691H138.532C139.195 74.691 140.523 74.691 141.444 73.9517C141.848 73.6568 142.918 72.7359 142.918 70.8536C142.918 69.048 142.033 68.1999 141.517 67.8685C140.632 67.2425 139.562 67.2425 137.757 67.2425H133.925V74.691Z" fill="white"/>
<path d="M81.8082 103.674C81.8082 104.922 81.8082 106.396 81.6301 107.584C81.4811 108.375 81.2304 110.246 79.4902 112.318C77.7068 114.442 76.7912 113.32 76.7912 110.956C76.7912 110.613 76.7912 110.956 76.7912 110.956V109.991L72.3047 114.911V116.155C72.3047 115.166 72.3047 116.155 72.3047 116.155C72.3047 117.145 72.2869 118.853 73.4274 119.661C76.1375 121.568 82.3058 112.051 83.1338 110.541C85.8186 105.612 86.4395 102.009 86.4395 98.3658V83.0693L81.8082 88.4049V103.674Z" fill="white"/>
<path d="M99.7751 80.9762C99.6962 84.2276 98.0423 87.6812 96.3095 89.8909C92.2833 95.0209 92.2833 88.2955 92.2833 86.8858C92.2833 81.998 93.5628 76.4277 96.6278 72.5176C99.3123 69.0964 99.7356 71.5769 99.7356 72.7199C99.7356 73.6245 99.7356 73.6732 99.7356 73.6732L103.955 68.426L103.959 67.3395C103.959 62.6136 100.999 63.2354 96.7889 68.6038C91.3777 75.5028 87.9648 84.8378 87.9648 92.3548C87.9648 98.2278 90.1239 101.512 96.7623 93.0538C98.5212 90.8117 100.681 87.5641 102.387 83.2262C103.932 79.2878 104.041 76.9532 104.12 75.4384L99.7751 80.9762Z" fill="white"/>
</g>
<defs>
<filter id="filter0_d_371_80" x="0.271484" y="0.294922" width="175.402" height="191.517" filterUnits="userSpaceOnUse" color-interpolation-filters="sRGB">
<feFlood flood-opacity="0" result="BackgroundImageFix"/>
<feColorMatrix in="SourceAlpha" type="matrix" values="0 0 0 0 0 0 0 0 0 0 0 0 0 0 0 0 0 0 127 0" result="hardAlpha"/>
<feOffset dy="4"/>
<feGaussianBlur stdDeviation="2"/>
<feComposite in2="hardAlpha" operator="out"/>
<feColorMatrix type="matrix" values="0 0 0 0 0 0 0 0 0 0 0 0 0 0 0 0 0 0 0.25 0"/>
<feBlend mode="normal" in2="BackgroundImageFix" result="effect1_dropShadow_371_80"/>
<feBlend mode="normal" in="SourceGraphic" in2="effect1_dropShadow_371_80" result="shape"/>
</filter>
</defs>
</svg>
